<svg width="366" height="380" viewBox="0 0 366 380" fill="none" xmlns="http://www.w3.org/2000/svg">
<path d="M237.527 344.403C235.567 349.273 233.673 354.684 232.321 359.621C231.104 364.288 230.36 368.481 230.631 371.525C230.969 374.974 233.673 377.747 237.122 378.018C251.321 379.37 287.426 381.805 288.373 377.815C289.928 371.119 280.8 365.708 274.377 362.462C271.334 360.974 269.035 358.471 267.683 355.495C266.939 353.872 266.466 352.046 266.398 350.22L237.527 344.403Z" fill="#FC6054"/>
<path d="M237.527 344.403C235.567 349.273 233.673 354.684 232.321 359.621C242.936 366.384 258.961 360.027 267.615 355.563C266.872 353.94 266.398 352.114 266.331 350.288L237.527 344.403Z" fill="#E64B38"/>
<path d="M265.181 376.056C255.648 376.056 243.883 375.244 233.741 372.201C233.403 372.066 233.2 371.727 233.268 371.389C233.403 371.051 233.741 370.848 234.079 370.916C255.039 377.273 283.234 373.756 283.505 373.756C283.91 373.689 284.181 373.959 284.249 374.365C284.316 374.703 284.046 375.041 283.64 375.109C283.64 375.109 275.729 376.056 265.181 376.056ZM270.05 362.8C269.847 362.8 269.644 362.732 269.509 362.529C269.306 362.259 269.373 361.785 269.644 361.582L272.687 359.418C272.957 359.215 273.43 359.283 273.633 359.553C273.836 359.824 273.768 360.297 273.498 360.5C270.388 362.664 270.455 362.8 270.05 362.8ZM272.078 364.829C271.875 364.558 271.943 364.085 272.213 363.882L275.256 361.717C275.526 361.515 276 361.582 276.202 361.853C276.405 362.123 276.338 362.597 276.067 362.8L273.025 364.964C272.687 365.167 272.281 365.099 272.078 364.829ZM266.939 360.162C266.737 359.891 266.804 359.418 267.075 359.215L270.117 357.051C270.388 356.848 270.861 356.915 271.064 357.186C271.267 357.457 271.199 357.93 270.929 358.133L267.886 360.297C267.615 360.568 267.142 360.5 266.939 360.162Z" fill="#2A3547"/>
<path d="M53.6178 328.374C49.8314 332.026 45.9098 336.219 42.6643 340.142C39.6217 343.862 37.2552 347.447 36.3086 350.287C35.1592 353.601 36.5791 357.186 39.5541 358.877C51.995 365.843 84.044 382.752 86.4781 379.505C90.6025 374.027 84.4497 365.302 79.9195 359.824C77.7559 357.254 76.6065 354.007 76.6065 350.761C76.6065 348.935 76.8769 347.108 77.553 345.418L53.6178 328.374Z" fill="#FC6054"/>
<path d="M53.6177 328.374C49.8313 332.026 45.9097 336.219 42.6642 340.142C49.6284 350.625 66.87 351.302 76.6064 350.761C76.6064 348.935 76.8768 347.108 77.553 345.418L53.6177 328.374Z" fill="#E64B38"/>
<path d="M83.4354 375.177C83.1649 375.109 55.7137 366.722 38.8779 352.249C38.6074 351.978 38.5398 351.572 38.8103 351.302C39.0807 351.031 39.4864 350.964 39.7569 351.234C56.3899 365.505 83.503 373.824 83.7735 373.892C84.1115 374.027 84.3144 374.365 84.2468 374.703C84.1115 375.109 83.7735 375.312 83.4354 375.177ZM75.457 357.93C75.3893 357.592 75.5922 357.186 75.9979 357.118L79.649 356.374C79.9871 356.307 80.3928 356.51 80.4604 356.915C80.528 357.254 80.3252 357.659 79.9195 357.727L76.2683 358.471C75.9303 358.471 75.5246 358.268 75.457 357.93ZM76.8769 361.041C76.8092 360.703 77.0121 360.297 77.4178 360.23L81.0689 359.486C81.407 359.418 81.8127 359.621 81.8803 360.027C81.9479 360.432 81.7451 360.771 81.3394 360.838L77.6882 361.582C77.2825 361.65 76.9445 361.447 76.8769 361.041ZM74.1047 354.751C74.0371 354.413 74.2399 354.007 74.6456 353.94L78.2967 353.196C78.6348 353.128 79.0405 353.331 79.1081 353.737C79.1757 354.075 78.9729 354.481 78.5672 354.548L74.9161 355.292C74.5104 355.36 74.1723 355.089 74.1047 354.751ZM136.986 19.2857H130.157C129.751 19.2857 129.48 19.0151 129.48 18.6093C129.48 18.2035 129.751 17.933 130.157 17.933H136.986C137.391 17.933 137.662 18.2035 137.662 18.6093C137.662 19.0151 137.324 19.2857 136.986 19.2857Z" fill="#2A3547"/>
<path d="M273.498 340.954C272.348 347.041 271.537 350.761 271.537 350.761C269.306 354.684 227.453 351.167 227.453 347.65C228.738 315.794 239.623 287.929 226.912 267.842C218.595 254.653 201.489 254.45 184.518 240.517C178.906 251.271 164.707 278.19 157.134 287.659C143.071 305.176 87.4246 348.056 87.4246 348.056C80.6632 354.075 37.8637 336.626 43.0023 329.389C43.0023 329.389 101.894 279.137 110.481 255.668C123.868 219.077 143.138 189.521 163.22 173.898L200.948 179.714L216.364 182.082C216.364 182.082 219.204 184.246 223.666 187.83C239.15 200.275 274.242 230.034 279.921 247.078C286.48 266.895 277.69 319.108 273.498 340.954Z" fill="#8D95FF"/>
<path d="M273.498 340.954C272.348 347.041 271.537 350.761 271.537 350.761C269.306 354.684 227.453 351.167 227.453 347.65C228.738 315.794 239.623 287.929 226.912 267.842C218.595 254.653 201.489 254.45 184.518 240.518C187.696 244.17 207.574 162.874 221.435 172.68C225.898 175.453 225.627 183.434 223.734 187.966C223.599 188.372 223.396 188.71 223.193 189.048C220.827 193.241 216.837 196.285 213.051 199.193C209.197 202.169 205.343 205.28 203.247 209.676C200.204 216.034 201.827 223.947 205.749 229.831C209.67 235.716 215.485 240.044 221.435 243.899C227.385 247.754 233.47 251.407 238.474 256.479C245.303 263.446 249.495 272.982 249.968 282.721C250.442 292.258 247.534 301.591 246.993 311.128C246.452 320.664 249.089 331.418 257.271 336.22C261.665 338.79 266.872 339.263 271.808 340.481C272.348 340.616 272.889 340.751 273.498 340.954Z" fill="#757BFF"/>
<path d="M164.031 209.744C164.031 209.338 164.302 209.067 164.707 209.067C174.985 208.662 178.027 202.439 176.202 196.42C176.066 196.082 176.269 195.676 176.675 195.608C177.013 195.473 177.419 195.676 177.486 196.082C179.515 202.98 175.863 210.014 164.775 210.42C164.302 210.42 164.031 210.15 164.031 209.744Z" fill="#2A3547"/>
<path d="M162.746 202.98C165.992 204.807 171.807 211.029 170.995 215.222C170.252 218.942 164.369 212.449 164.369 212.449C164.369 212.449 167.412 224.488 165.113 225.773C163.828 226.517 160.989 221.783 160.448 216.102C160.448 216.102 161.868 227.058 159.433 227.599C156.458 228.276 156.526 217.454 156.526 217.454C156.526 217.454 157.473 227.937 154.7 228.14C151.996 228.343 153.281 215.899 153.281 215.899C153.281 215.899 152.942 225.638 150.576 225.367C148.615 225.097 148.818 215.087 149.088 211.638C149.291 207.647 150.982 196.42 162.746 202.98Z" fill="#FCBBA4"/>
<path d="M176.81 254.991C176.472 254.788 176.404 254.382 176.54 254.044C197.094 218.806 204.194 184.651 204.261 184.313C204.329 183.975 204.667 183.704 205.073 183.772C205.411 183.84 205.681 184.178 205.614 184.584C205.546 184.922 198.379 219.28 177.689 254.72C177.554 255.058 177.148 255.194 176.81 254.991Z" fill="#2A3547"/>
<path d="M218.798 260.469C215.147 257.967 210.888 256.006 206.29 253.909C199.461 250.798 191.753 247.281 184.112 240.991C183.842 240.788 183.774 240.314 184.045 240.044C184.248 239.773 184.721 239.706 184.991 239.976C192.497 246.131 200.137 249.648 206.898 252.692C211.496 254.788 215.891 256.817 219.61 259.32C219.948 259.523 220.015 259.928 219.813 260.267C219.542 260.605 219.136 260.672 218.798 260.469Z" fill="#2A3547"/>
<path d="M158.352 178.091C158.352 178.091 159.298 149.955 168.156 136.022C168.156 136.022 160.921 86.176 206.898 90.1664C240.638 93.0746 256.865 111.133 256.865 111.133C256.865 111.133 246.385 192.497 235.567 197.637C223.869 203.183 206.087 175.183 186.006 182.758C165.789 190.333 158.352 178.091 158.352 178.091Z" fill="#66D3D8"/>
<path d="M327.048 139.607C302.234 175.859 276.946 198.99 254.025 192.7C251.862 192.091 249.766 191.144 247.872 189.792C223.937 173.695 217.717 108.022 217.717 108.022L231.983 95.8477C273.904 107.751 270.996 154.284 270.996 154.284C274.107 149.549 277.893 145.221 281.882 141.365C295.472 128.244 311.565 120.737 311.565 120.737L327.048 139.607Z" fill="#66D3D8"/>
<path d="M327.048 139.607C302.234 175.859 276.946 198.99 254.025 192.7C251.861 192.091 249.765 191.144 247.872 189.791C249.63 188.303 251.929 187.221 254.025 186.41C260.651 183.84 267.683 182.216 274.174 179.376C280.665 176.467 286.885 172.139 290.063 165.781C293.241 159.424 292.565 150.767 287.156 146.167C285.398 144.679 283.572 143.935 281.882 141.365C295.472 128.244 311.564 120.737 311.564 120.737L327.048 139.607Z" fill="#47B6C3"/>
<path d="M351.389 178.903C351.051 179.241 350.645 179.444 350.172 179.511C317.177 183.366 289.387 148.67 270.861 91.5192C270.523 90.4371 271.199 89.2873 272.349 89.0844C291.686 85.635 306.832 71.77 311.091 67.5091C311.767 66.8327 312.849 66.7651 313.661 67.3738C324.884 76.5044 338.069 83.7413 353.079 89.152C353.62 89.3549 354.026 89.7607 354.229 90.2342C367.414 125.066 371.606 156.38 351.389 178.903Z" fill="white"/>
<path d="M233.335 61.1513L233.471 61.0837C233.741 60.9484 233.944 61.2866 233.673 61.4219C233.606 61.4219 233.606 61.4895 233.538 61.4895C233.268 61.6248 233.065 61.2866 233.335 61.1513ZM227.791 62.3688C227.52 62.3688 227.25 62.3011 226.98 62.3011C226.844 62.3011 226.777 62.0982 226.844 61.963C226.912 61.8953 226.98 61.8953 227.047 61.8953C227.318 61.8953 227.588 61.963 227.859 61.963C228.061 61.963 228.061 62.3688 227.791 62.3688Z" fill="#FF987A"/>
<path d="M227.791 62.3691C227.656 62.3691 227.588 62.2338 227.588 62.1662C227.588 62.0309 227.723 61.9633 227.791 61.9633C228.535 62.0309 228.941 62.0309 229.076 62.0309C229.347 62.0309 229.347 62.4367 229.076 62.4367C228.738 62.4367 228.264 62.4367 227.791 62.3691Z" fill="#FF987A"/>
<path d="M229.279 62.4363C229.008 62.4363 229.008 62.0305 229.279 62.0305C229.481 62.0305 229.752 62.0305 229.955 62.0305C230.09 62.0305 230.158 62.0982 230.158 62.2334C230.158 62.3687 230.09 62.4363 229.955 62.4363C229.752 62.3687 229.481 62.4363 229.279 62.4363Z" fill="#FF987A"/>
<path d="M207.236 93.3452C208.386 94.9684 210.009 97.2003 212.172 99.0264C218.19 104.234 227.588 101.529 229.955 93.9539L232.727 85.0938C232.727 85.0938 240.164 86.8523 242.598 79.7507C243.275 77.7893 243.139 74.2723 242.463 70.2819C242.26 68.794 241.922 67.2384 241.584 65.6152C240.84 61.9629 239.826 58.1754 238.812 54.929C236.716 56.0111 233.606 56.4169 229.076 55.7406C229.076 55.7406 226.371 61.4895 218.325 57.7696C218.325 57.7696 222.652 66.3591 214.742 69.0645C213.322 69.5379 211.767 69.1998 210.211 68.3882C210.617 70.7553 211.496 71.7022 213.186 73.596L206.628 88.3402C206.019 89.9635 206.222 91.8572 207.236 93.3452Z" fill="#FCBBA4"/>
<path d="M211.699 99.5677C209.468 97.6063 207.71 95.3068 206.628 93.7512C205.884 92.669 205.546 91.384 205.614 90.0989C205.614 89.6931 205.952 89.4226 206.357 89.4902C206.763 89.4902 207.034 89.8284 206.966 90.2342C206.898 91.2487 207.169 92.1956 207.777 93.0072C208.791 94.4952 210.482 96.7271 212.578 98.5532C218.055 103.288 226.506 101.123 229.076 94.4952C229.211 94.157 229.617 93.9541 229.955 94.0893C230.293 94.2246 230.496 94.6304 230.36 94.9686C227.453 102.408 217.987 104.978 211.699 99.5677Z" fill="#2A3547"/>
<path d="M206.29 90.8432C205.884 90.8432 205.614 90.505 205.681 90.0992C205.749 89.3552 205.884 88.6789 206.222 88.0025C206.357 87.6644 206.763 87.5291 207.101 87.6644C207.439 87.7996 207.575 88.2054 207.439 88.5436C207.236 89.0847 207.101 89.6258 207.034 90.1668C206.966 90.5726 206.696 90.8432 206.29 90.8432ZM241.99 42.1466C243.748 46.4752 244.965 58.2435 229.143 55.741C229.143 55.741 226.439 61.4899 218.393 57.7701C218.393 57.7701 222.72 66.3596 214.809 69.065C206.966 71.7027 193.849 49.7892 209.062 47.2868C209.062 47.2868 207.98 42.4171 213.389 44.0403C213.389 44.0403 215.147 33.8276 225.289 39.7117C225.289 39.7117 236.987 29.8371 241.99 42.1466Z" fill="#2A3547"/>
<path d="M240.57 60.8808C240.029 58.8517 239.488 56.8227 238.947 54.9289C241.787 53.441 242.869 50.8033 243.072 48.1655C244.627 50.8033 247.534 57.0932 240.57 60.8808ZM229.549 65.7504C229.752 66.562 230.36 67.0355 230.969 66.9002C231.577 66.7649 231.848 66.0209 231.645 65.2093C231.442 64.4654 230.834 63.9243 230.225 64.0596C229.684 64.2625 229.346 65.0064 229.549 65.7504ZM238.812 64.0596C239.015 64.8712 239.623 65.3446 240.232 65.2093C240.84 65.0741 241.111 64.3301 240.908 63.5185C240.705 62.7745 240.097 62.2334 239.488 62.3687C238.88 62.5716 238.609 63.3156 238.812 64.0596ZM226.912 61.6924C226.371 62.0305 226.574 62.4363 227.182 62.504C228.873 62.8421 230.631 62.3687 231.983 61.3542C232.456 61.016 232.253 60.5426 231.713 60.4073C231.239 60.272 230.631 60.4073 230.225 60.4749C229.076 60.7455 227.926 61.1513 226.912 61.6924Z" fill="#2A3547"/>
<path d="M236.175 59.4607C235.702 59.7313 235.769 60.1371 236.446 60.2723C238.136 60.6105 239.894 60.1371 241.246 59.1226C241.719 58.7844 241.517 58.3109 240.976 58.1757C240.502 58.0404 239.894 58.1757 239.488 58.2433C238.406 58.4462 237.257 58.852 236.175 59.4607Z" fill="#2A3547"/>
<path d="M234.823 77.3838C234.552 77.1809 234.485 76.7074 234.688 76.4369C234.89 76.1664 235.364 76.0987 235.634 76.3016C237.865 77.9925 239.218 76.5722 239.353 76.3693C239.623 76.0987 240.029 76.0311 240.3 76.3016C240.57 76.5722 240.638 76.978 240.367 77.2485C239.218 78.6688 236.986 79.0746 234.823 77.3838Z" fill="#F97A5D"/>
<path d="M232.727 85.094C232.727 85.094 226.912 84.0119 221.773 79.548C221.435 79.2098 220.894 79.6156 221.097 80.0891C222.247 82.8621 225.154 87.9346 231.307 89.6931L232.727 85.094Z" fill="#E2805D"/>
<path d="M207.439 68.9973C208.318 72.379 211.293 74.7462 213.998 74.2728C216.77 73.7993 218.257 70.6205 217.378 67.2388C216.499 63.8571 213.524 61.4899 210.82 61.9634C208.115 62.3692 206.56 65.548 207.439 68.9973Z" fill="#FCBBA4"/>
<path d="M212.375 69.5379L211.699 68.2529C211.496 67.9147 211.631 67.5089 211.969 67.306C212.307 67.1031 212.713 67.2384 212.916 67.5765L213.592 68.8616C213.795 69.1998 213.66 69.6056 213.322 69.8085C212.984 69.9437 212.578 69.8085 212.375 69.5379ZM235.702 70.823C235.702 70.4172 235.972 70.1466 236.31 70.079C236.378 70.079 237.798 69.9437 237.865 69.8761C238.136 69.1998 236.513 66.6297 234.958 64.8035C234.688 64.533 234.755 64.0596 235.026 63.8567C235.296 63.5861 235.769 63.6538 235.972 63.9243C236.851 65.0065 239.759 68.5911 239.082 70.3496C238.947 70.6201 238.677 71.1612 237.865 71.2964C237.325 71.3641 236.851 71.4317 236.378 71.4993C236.04 71.4993 235.702 71.1612 235.702 70.823Z" fill="#F97A5D"/>
<path d="M270.185 91.7219C269.712 90.2339 270.658 88.6784 272.213 88.4078C291.348 84.9585 306.426 71.1611 310.55 67.0354C311.497 66.0885 312.984 66.0209 313.999 66.9002C324.952 75.8279 338.137 83.1324 353.215 88.5431C353.958 88.8136 354.499 89.3547 354.77 90.031C362.14 109.442 365.858 125.471 365.994 139.201C366.197 155.433 361.531 168.622 351.862 179.376C351.457 179.849 350.848 180.12 350.24 180.187C308.86 185.057 283.032 131.356 270.185 91.7219ZM311.497 67.9823C307.237 72.1756 291.957 86.2435 272.416 89.7605C271.672 89.8958 271.199 90.6398 271.47 91.3161C284.113 130.341 309.536 183.569 350.037 178.835C350.51 178.767 350.781 178.497 350.848 178.429C368.428 158.815 369.239 131.694 353.485 90.4369C353.35 90.0987 353.079 89.8281 352.741 89.6929C337.528 84.2145 324.208 76.8424 313.12 67.847C312.646 67.5089 311.97 67.5089 311.497 67.9823Z" fill="#2A3547"/>
<path d="M155.106 31.4598V150.564C155.106 158.003 149.089 164.09 141.584 164.09H14.1991C6.76159 164.09 0.676346 158.071 0.676346 150.564V31.4598H155.106Z" fill="white"/>
<path d="M154.227 105.114C154.633 102.273 154.903 99.5001 155.106 96.6594V150.564C155.106 158.004 149.089 164.091 141.583 164.091H14.1989C10.683 164.091 7.43753 162.738 5.07104 160.506C35.7677 156.989 67.2758 165.579 97.9048 160.574C113.929 157.936 129.886 151.173 140.231 138.931C148.277 129.462 152.537 117.288 154.227 105.114Z" fill="#E1E5FF"/>
<path d="M155.106 31.46V20.2328C155.106 12.793 149.089 6.70593 141.584 6.70593H14.1991C6.76159 6.70593 0.676346 12.7254 0.676346 20.2328V31.46H155.106Z" fill="#FFC25E"/>
<path d="M155.106 20.233V31.4603H0.743881V26.9965H143.612C147.534 26.9965 150.711 23.8177 150.711 19.8949V15.7016C150.711 13.1315 149.968 10.6966 148.751 8.6676C152.537 11.1024 155.106 15.3634 155.106 20.233Z" fill="#EFA130"/>
<path d="M141.583 164.767H14.1989C6.3557 164.767 0 158.409 0 150.564V31.4598C0 31.054 0.270455 30.7834 0.676138 30.7834H155.039C155.444 30.7834 155.715 31.054 155.715 31.4598V150.564C155.782 158.409 149.427 164.767 141.583 164.767ZM1.41989 32.1361V150.564C1.41989 157.665 7.16707 163.414 14.2665 163.414H141.651C148.75 163.414 154.498 157.665 154.498 150.564V32.1361H1.41989Z" fill="#2A3547"/>
<path d="M105.477 71.4993C105.477 86.717 93.1718 99.0264 77.9587 99.0264C62.7455 99.0264 50.4398 86.717 50.4398 71.4993C50.4398 56.2816 62.7455 43.9722 77.9587 43.9722C93.1042 43.9722 105.477 56.2816 105.477 71.4993Z" fill="#E1E5FF"/>
<path d="M105.478 71.4997C105.478 86.7174 93.1719 99.0268 77.9587 99.0268C70.386 99.0268 63.4894 95.9833 58.486 90.9784C62.6104 93.4808 67.4786 94.9011 72.6173 94.9011C87.8304 94.9011 100.136 82.5917 100.136 67.374C100.136 59.7314 97.0258 52.8327 92.0224 47.8954C100.068 52.6974 105.478 61.4222 105.478 71.4997Z" fill="#CCD2FF"/>
<path d="M120.961 114.65V125.337C120.961 126.892 119.676 128.177 118.121 128.177H37.7284C36.1733 128.177 34.8886 126.892 34.8886 125.337V114.65C34.8886 113.095 36.1733 111.81 37.7284 111.81H118.054C119.676 111.81 120.961 113.095 120.961 114.65Z" fill="#E1E5FF"/>
<path d="M120.961 114.65V125.337C120.961 126.96 119.676 128.177 118.121 128.177H37.7284C36.1733 128.177 34.8886 126.892 34.8886 125.337C35.0239 125.337 35.0915 125.337 35.2267 125.337H115.552C117.107 125.337 118.392 124.051 118.392 122.496V111.81C119.879 112.013 120.961 113.23 120.961 114.65Z" fill="#CCD2FF"/>
<path d="M155.106 32.1364H0.743674C0.337991 32.1364 0.0675354 31.8659 0.0675354 31.4601V20.2328C0.0675354 12.3872 6.42324 6.0296 14.2664 6.0296H141.651C149.494 6.0296 155.85 12.3872 155.85 20.2328V31.4601C155.782 31.7982 155.512 32.1364 155.106 32.1364ZM1.41981 30.7837H154.43V20.2328C154.43 13.1312 148.683 7.38229 141.583 7.38229H14.1988C7.09938 7.38229 1.3522 13.1312 1.3522 20.2328V30.7837H1.41981Z" fill="#2A3547"/>
<path d="M13.5904 23.4793C15.3829 23.4793 16.8359 22.0259 16.8359 20.2329C16.8359 18.4399 15.3829 16.9865 13.5904 16.9865C11.798 16.9865 10.345 18.4399 10.345 20.2329C10.345 22.0259 11.798 23.4793 13.5904 23.4793Z" fill="white"/>
<path d="M25.4903 23.4793C27.2828 23.4793 28.7358 22.0259 28.7358 20.2329C28.7358 18.4399 27.2828 16.9865 25.4903 16.9865C23.6979 16.9865 22.2449 18.4399 22.2449 20.2329C22.2449 22.0259 23.6979 23.4793 25.4903 23.4793Z" fill="white"/>
<path d="M37.3904 23.4793C39.1828 23.4793 40.6359 22.0259 40.6359 20.2329C40.6359 18.4399 39.1828 16.9865 37.3904 16.9865C35.598 16.9865 34.145 18.4399 34.145 20.2329C34.145 22.0259 35.598 23.4793 37.3904 23.4793Z" fill="white"/>
<path d="M16.8358 20.2328C16.8358 22.0589 15.3483 23.4793 13.5903 23.4793C12.2381 23.4793 11.0886 22.6676 10.6153 21.5179C13.2523 22.6676 16.0244 19.8946 14.875 17.1893C16.0244 17.7303 16.8358 18.8801 16.8358 20.2328ZM28.7358 20.2328C28.7358 22.0589 27.2483 23.4793 25.4904 23.4793C24.1381 23.4793 22.9887 22.6676 22.5154 21.5179C25.2875 22.6676 27.9245 19.827 26.775 17.1893C27.9245 17.7303 28.7358 18.8801 28.7358 20.2328ZM40.6359 20.2328C40.6359 22.0589 39.1484 23.4793 37.3904 23.4793C36.0381 23.4793 34.8887 22.6676 34.4154 21.5179C37.0523 22.6676 39.8921 19.8946 38.6751 17.1893C39.8245 17.7303 40.6359 18.8801 40.6359 20.2328Z" fill="#E1E5FF"/>
<path d="M13.5904 24.2231C11.4268 24.2231 9.66879 22.4646 9.66879 20.3003C9.66879 18.136 11.4268 16.3775 13.5904 16.3775C15.754 16.3775 17.512 18.136 17.512 20.3003C17.512 22.4646 15.754 24.2231 13.5904 24.2231ZM13.5904 17.6625C12.1705 17.6625 11.0211 18.8123 11.0211 20.2326C11.0211 21.653 12.1705 22.8027 13.5904 22.8027C15.0103 22.8027 16.1597 21.653 16.1597 20.2326C16.1597 18.8123 15.0103 17.6625 13.5904 17.6625ZM25.4904 24.2231C23.3268 24.2231 21.5688 22.4646 21.5688 20.3003C21.5688 18.136 23.3268 16.3775 25.4904 16.3775C27.6541 16.3775 29.412 18.136 29.412 20.3003C29.412 22.4646 27.6541 24.2231 25.4904 24.2231ZM25.4904 17.6625C24.0705 17.6625 22.9211 18.8123 22.9211 20.2326C22.9211 21.653 24.0705 22.8027 25.4904 22.8027C26.9103 22.8027 28.0598 21.653 28.0598 20.2326C28.0598 18.8123 26.9103 17.6625 25.4904 17.6625ZM37.3905 24.2231C35.2268 24.2231 33.4689 22.4646 33.4689 20.3003C33.4689 18.136 35.2268 16.3775 37.3905 16.3775C39.5541 16.3775 41.3121 18.136 41.3121 20.3003C41.3121 22.4646 39.5541 24.2231 37.3905 24.2231ZM37.3905 17.6625C35.9706 17.6625 34.8211 18.8123 34.8211 20.2326C34.8211 21.653 35.9706 22.8027 37.3905 22.8027C38.8104 22.8027 39.9598 21.653 39.9598 20.2326C39.9598 18.8123 38.8104 17.6625 37.3905 17.6625Z" fill="#2A3547"/>
<path d="M96.9581 141.162V151.849C96.9581 153.404 95.6735 154.689 94.1184 154.689H61.7313C60.1762 154.689 58.8915 153.404 58.8915 151.849V141.162C58.8915 139.607 60.1762 138.322 61.7313 138.322H94.1184C95.6735 138.322 96.9581 139.607 96.9581 141.162Z" fill="#FC6054"/>
<path d="M96.9581 141.162V151.849C96.9581 153.472 95.6735 154.689 94.1184 154.689H61.7313C60.1762 154.689 58.8915 153.404 58.8915 151.849H91.2786C92.8337 151.849 94.1184 150.564 94.1184 149.008V138.322C95.7411 138.322 96.9581 139.607 96.9581 141.162Z" fill="#E64B38"/>
<path d="M118.054 128.921H37.7285C35.7677 128.921 34.2125 127.298 34.2125 125.404V114.718C34.2125 112.756 35.8353 111.201 37.7285 111.201H118.054C120.014 111.201 121.57 112.824 121.57 114.718V125.404C121.637 127.298 120.014 128.921 118.054 128.921ZM37.7285 112.486C36.5114 112.486 35.5648 113.5 35.5648 114.65V125.336C35.5648 126.554 36.579 127.501 37.7285 127.501H118.054C119.271 127.501 120.217 126.486 120.217 125.336V114.65C120.217 113.433 119.203 112.486 118.054 112.486H37.7285Z" fill="#2A3547"/>
<path d="M48.2086 119.993C48.2086 121.549 46.9239 122.834 45.3688 122.834C43.8137 122.834 42.5291 121.549 42.5291 119.993C42.5291 118.438 43.8137 117.152 45.3688 117.152C46.9239 117.152 48.2086 118.438 48.2086 119.993Z" fill="white"/>
<path d="M45.3688 123.51C43.408 123.51 41.8529 121.954 41.8529 119.993C41.8529 118.032 43.408 116.476 45.3688 116.476C47.3296 116.476 48.8848 118.032 48.8848 119.993C48.8848 121.954 47.3296 123.51 45.3688 123.51ZM45.3688 117.829C44.1518 117.829 43.2052 118.776 43.2052 119.993C43.2052 121.21 44.1518 122.157 45.3688 122.157C46.5859 122.157 47.5325 121.21 47.5325 119.993C47.5325 118.776 46.5859 117.829 45.3688 117.829Z" fill="#2A3547"/>
<path d="M59.0945 119.993C59.0945 121.549 57.8098 122.834 56.2547 122.834C54.6996 122.834 53.4149 121.549 53.4149 119.993C53.4149 118.438 54.6996 117.152 56.2547 117.152C57.8098 117.152 59.0945 118.438 59.0945 119.993Z" fill="white"/>
<path d="M56.1871 123.51C54.2263 123.51 52.6711 121.954 52.6711 119.993C52.6711 118.032 54.2263 116.476 56.1871 116.476C58.1479 116.476 59.703 118.032 59.703 119.993C59.7706 121.954 58.1479 123.51 56.1871 123.51ZM56.1871 117.829C54.97 117.829 54.0234 118.776 54.0234 119.993C54.0234 121.21 54.97 122.157 56.1871 122.157C57.4041 122.157 58.3507 121.21 58.3507 119.993C58.4183 118.776 57.4041 117.829 56.1871 117.829Z" fill="#2A3547"/>
<path d="M69.9127 119.993C69.9127 121.549 68.628 122.834 67.0729 122.834C65.5178 122.834 64.2331 121.549 64.2331 119.993C64.2331 118.438 65.5178 117.152 67.0729 117.152C68.628 117.152 69.9127 118.438 69.9127 119.993Z" fill="white"/>
<path d="M67.0729 123.51C65.1121 123.51 63.557 121.954 63.557 119.993C63.557 118.032 65.1121 116.476 67.0729 116.476C69.0337 116.476 70.5888 118.032 70.5888 119.993C70.5888 121.954 69.0337 123.51 67.0729 123.51ZM67.0729 117.829C65.8559 117.829 64.9093 118.776 64.9093 119.993C64.9093 121.21 65.8559 122.157 67.0729 122.157C68.29 122.157 69.2366 121.21 69.2366 119.993C69.2366 118.776 68.29 117.829 67.0729 117.829Z" fill="#2A3547"/>
<path d="M80.7309 119.993C80.7309 121.549 79.4462 122.834 77.8911 122.834C76.336 122.834 75.0513 121.549 75.0513 119.993C75.0513 118.438 76.336 117.152 77.8911 117.152C79.5138 117.152 80.7309 118.438 80.7309 119.993Z" fill="white"/>
<path d="M77.8911 123.51C75.9303 123.51 74.3752 121.954 74.3752 119.993C74.3752 118.032 75.9303 116.476 77.8911 116.476C79.8519 116.476 81.407 118.032 81.407 119.993C81.407 121.954 79.8519 123.51 77.8911 123.51ZM77.8911 117.829C76.6741 117.829 75.7275 118.776 75.7275 119.993C75.7275 121.21 76.6741 122.157 77.8911 122.157C79.1082 122.157 80.0548 121.21 80.0548 119.993C80.0548 118.776 79.1082 117.829 77.8911 117.829Z" fill="#2A3547"/>
<path d="M91.6167 119.993C91.6167 121.549 90.332 122.834 88.7769 122.834C87.2218 122.834 85.9371 121.549 85.9371 119.993C85.9371 118.438 87.2218 117.152 88.7769 117.152C90.332 117.152 91.6167 118.438 91.6167 119.993Z" fill="white"/>
<path d="M88.7769 123.51C86.8161 123.51 85.2609 121.954 85.2609 119.993C85.2609 118.032 86.8161 116.476 88.7769 116.476C90.7377 116.476 92.2928 118.032 92.2928 119.993C92.2928 121.954 90.7377 123.51 88.7769 123.51ZM88.7769 117.829C87.5598 117.829 86.6132 118.776 86.6132 119.993C86.6132 121.21 87.5598 122.157 88.7769 122.157C89.9939 122.157 90.9405 121.21 90.9405 119.993C90.9405 118.776 89.9939 117.829 88.7769 117.829Z" fill="#2A3547"/>
<path d="M102.435 119.993C102.435 121.549 101.15 122.834 99.5951 122.834C98.04 122.834 96.7553 121.549 96.7553 119.993C96.7553 118.438 98.04 117.152 99.5951 117.152C101.218 117.152 102.435 118.438 102.435 119.993Z" fill="white"/>
<path d="M99.5951 123.51C97.6343 123.51 96.0792 121.954 96.0792 119.993C96.0792 118.032 97.6343 116.476 99.5951 116.476C101.556 116.476 103.111 118.032 103.111 119.993C103.111 121.954 101.556 123.51 99.5951 123.51ZM99.5951 117.829C98.378 117.829 97.4314 118.776 97.4314 119.993C97.4314 121.21 98.378 122.157 99.5951 122.157C100.812 122.157 101.759 121.21 101.759 119.993C101.759 118.776 100.812 117.829 99.5951 117.829Z" fill="#2A3547"/>
<path d="M113.321 119.993C113.321 121.548 112.036 122.833 110.481 122.833C108.926 122.833 107.642 121.548 107.642 119.993C107.642 118.437 108.926 117.152 110.481 117.152C112.036 117.152 113.321 118.437 113.321 119.993Z" fill="white"/>
<path d="M110.481 123.51C108.52 123.51 106.965 121.954 106.965 119.993C106.965 118.031 108.52 116.476 110.481 116.476C112.442 116.476 113.997 118.031 113.997 119.993C113.997 121.954 112.442 123.51 110.481 123.51ZM110.481 117.828C109.264 117.828 108.317 118.775 108.317 119.993C108.317 121.21 109.264 122.157 110.481 122.157C111.698 122.157 112.645 121.21 112.645 119.993C112.645 118.775 111.631 117.828 110.481 117.828Z" fill="#2A3547"/>
<path d="M94.1186 155.433H61.7315C59.7707 155.433 58.2156 153.81 58.2156 151.916V141.23C58.2156 139.269 59.8383 137.713 61.7315 137.713H94.1186C96.0794 137.713 97.6345 139.336 97.6345 141.23V151.916C97.6345 153.81 96.0794 155.433 94.1186 155.433ZM61.7315 138.998C60.5145 138.998 59.5679 140.013 59.5679 141.162V151.849C59.5679 153.066 60.5821 154.013 61.7315 154.013H94.1186C95.3356 154.013 96.2822 152.998 96.2822 151.849V141.162C96.2822 139.945 95.268 138.998 94.1186 138.998H61.7315Z" fill="#2A3547"/>
<path d="M95.9439 92.3307C83.3678 103.287 63.9626 100.582 54.8347 86.5142C59.0268 85.2967 63.6245 84.8233 68.7632 85.1615C68.8984 85.1615 69.0336 85.1615 69.1012 85.1615C75.6598 85.432 81.2041 86.6494 85.8019 88.205C89.7911 89.1519 93.1041 90.5722 95.9439 92.3307Z" fill="#8D95FF"/>
<path d="M85.6667 65.6153C85.5991 65.5477 85.6667 65.4124 85.7343 65.3448L85.8019 65.2772C85.8695 65.2095 86.0047 65.2772 86.0724 65.3448C86.14 65.4124 86.14 65.4801 86.14 65.4801C86.0724 65.683 85.7343 65.8182 85.6667 65.6153ZM82.1508 66.3593C81.9479 66.3593 81.8127 66.3593 81.6098 66.3593C81.4746 66.3593 81.407 66.224 81.4746 66.0888C81.5422 66.0211 81.6098 65.9535 81.6775 65.9535C81.8803 65.9535 82.0155 65.9535 82.2184 65.9535C82.4212 66.0211 82.4212 66.3593 82.1508 66.3593Z" fill="#FF987A"/>
<path d="M82.489 66.4263C82.2861 66.4263 82.2185 66.4263 82.1508 66.4263C82.0156 66.4263 81.9479 66.3587 81.9479 66.2234C81.9479 66.0881 82.0156 66.0205 82.1508 66.0205C82.4214 66.0205 82.7596 66.0205 83.0301 66.0205C83.3006 66.0205 83.3006 66.4263 83.0301 66.4263C82.8272 66.3587 82.6919 66.4263 82.489 66.4263Z" fill="#FF987A"/>
<path d="M83.165 66.3593C82.8945 66.3593 82.8945 65.9535 83.165 65.9535C83.3003 65.9535 83.4356 65.9535 83.6385 65.8859C83.7737 65.8859 83.8414 65.9535 83.8414 66.0888C83.8414 66.224 83.7737 66.2917 83.6385 66.2917C83.4356 66.3593 83.3003 66.3593 83.165 66.3593Z" fill="#FF987A"/>
<path d="M69.4394 87.2582C70.2508 88.3403 71.4002 89.693 72.8201 90.8428C76.9445 94.0892 83.0298 92.1278 84.3821 87.0553L86.0048 81.1711C86.0048 81.1711 90.9406 82.118 92.3605 77.3836C92.7662 76.0309 92.5633 73.7313 92.0224 71.1612C91.8196 70.2143 91.6167 69.1322 91.3463 68.1177C90.7378 65.7505 89.994 63.3157 89.2503 61.1514C87.898 61.8953 85.8696 62.3011 82.8946 61.963C82.8946 61.963 81.2718 65.8181 75.8627 63.5862C75.8627 63.5862 78.9053 69.1322 73.8343 71.0936C72.9553 71.4318 71.8735 71.2965 70.8593 70.7554C71.1974 72.311 71.8059 72.9197 72.9553 74.0695L69.0337 83.9441C68.5604 85.0262 68.6957 86.3113 69.4394 87.2582Z" fill="#FCBBA4"/>
<path d="M72.4143 91.4512C71.1973 90.4367 69.9802 89.2193 68.8984 87.7314C68.3575 86.9874 68.087 86.1081 68.087 85.2289C68.087 84.8231 68.4251 84.5526 68.7632 84.5526C69.1688 84.5526 69.4393 84.8907 69.4393 85.2289C69.4393 85.8376 69.6421 86.4463 69.9802 86.9198C70.6564 87.8666 71.8058 89.2869 73.2933 90.4367C76.8768 93.2774 82.0831 91.7218 83.6382 87.5961C83.7734 87.2579 84.1791 87.055 84.5172 87.1903C84.8553 87.3256 85.0581 87.7314 84.9229 88.0695C83.0297 92.9392 76.7416 94.833 72.4143 91.4512ZM91.0081 52.6292C92.2928 55.4022 93.3746 63.1802 82.8945 61.8951C82.8945 61.8951 81.2717 65.7503 75.8626 63.5183C75.8626 63.5183 78.9052 69.0643 73.8342 71.0257C68.7632 72.9871 59.5001 58.9192 69.4393 56.8225C69.4393 56.8225 68.6279 53.6437 72.2115 54.5906C72.2115 54.5906 73.0905 47.8272 79.9194 51.4118C79.9194 51.4794 87.357 44.6484 91.0081 52.6292Z" fill="#2A3547"/>
<path d="M90.5348 65.006C90.1291 63.6533 89.7234 62.3683 89.3178 61.1509C91.1433 60.1364 91.8195 58.3102 91.8195 56.5518C92.9689 58.2426 95.0649 62.3683 90.5348 65.006ZM83.4354 68.523C83.5706 69.0641 84.0439 69.3346 84.382 69.267C84.7876 69.1317 84.9229 68.6583 84.7876 68.1172C84.6524 67.6438 84.1791 67.3056 83.841 67.3732C83.4354 67.5085 83.3001 67.9819 83.4354 68.523ZM89.453 67.1703C89.5882 67.7114 90.0615 67.9819 90.3996 67.9143C90.8053 67.779 90.9405 67.3056 90.8053 66.7645C90.67 66.2911 90.1967 65.9529 89.8587 66.0205C89.453 66.1558 89.3178 66.6292 89.453 67.1703ZM81.5422 65.8853C81.2041 66.0882 81.2717 66.3587 81.745 66.4264C82.8268 66.5616 84.0439 66.2911 84.8552 65.5471C85.1257 65.2766 84.9905 65.006 84.6524 64.9384C84.3819 64.8708 83.9763 65.006 83.7058 65.006C82.9621 65.2089 82.2183 65.4795 81.5422 65.8853Z" fill="#2A3547"/>
<path d="M87.6274 64.1945C87.2894 64.3974 87.357 64.6679 87.8303 64.7355C88.9121 64.8708 90.1291 64.6003 90.9405 63.8563C91.211 63.5857 91.0757 63.3152 90.7377 63.2476C90.4672 63.1799 90.0615 63.3152 89.7911 63.3152C89.0473 63.4505 88.3036 63.7886 87.6274 64.1945Z" fill="#2A3547"/>
<path d="M87.0189 76.2336C86.6808 76.0307 86.6132 75.6249 86.8837 75.2867C87.0865 74.9485 87.4922 74.8809 87.8303 75.1514C89.1825 76.0983 89.8587 75.2867 89.9263 75.1514C90.1291 74.8809 90.6024 74.8133 90.8729 75.0162C91.1434 75.2191 91.211 75.6925 91.0081 75.963C90.1968 76.9776 88.6416 77.3157 87.0189 76.2336ZM86.0047 81.1709C86.0047 81.1709 82.1507 80.6298 78.6348 77.7892C78.3643 77.5863 78.0263 77.8568 78.1615 78.1273C78.9729 79.8858 81.0013 83.1999 85.1257 84.1468L86.0047 81.1709Z" fill="#E2805D"/>
<path d="M68.966 71.2286C69.6422 73.4605 71.603 74.9485 73.4285 74.5427C75.2541 74.1369 76.1331 72.0402 75.457 69.8083C74.7808 67.5763 72.82 66.0884 70.9945 66.4942C69.2365 66.8324 68.2899 68.9967 68.966 71.2286Z" fill="#FCBBA4"/>
<path d="M72.0086 71.5668L71.5353 70.7552C71.3325 70.417 71.4677 70.0112 71.7382 69.8083C72.0763 69.6054 72.4819 69.7406 72.6848 70.0112L73.1581 70.8228C73.3609 71.161 73.2257 71.5668 72.9552 71.7697C72.6172 71.9726 72.2115 71.8373 72.0086 71.5668ZM87.357 71.702C87.2894 71.3639 87.5598 71.0257 87.9655 70.9581C88.236 70.9581 88.5064 70.8904 88.7769 70.8228C88.7093 70.2817 87.8303 68.9967 86.8161 67.8469C86.5456 67.5763 86.6132 67.1705 86.8837 66.9C87.1541 66.6295 87.5598 66.6971 87.8303 66.9676C88.6416 67.8469 90.5348 70.0788 90.1292 71.3639C90.0615 71.6344 89.7911 72.0402 89.1826 72.1755C88.8445 72.2431 88.5064 72.3107 88.1683 72.3107C87.7627 72.3107 87.4246 72.1078 87.357 71.702Z" fill="#E2805D"/>
<path d="M77.8911 99.7027C62.34 99.7027 49.6962 87.0551 49.6962 71.4992C49.6962 55.9434 62.34 43.2958 77.8911 43.2958C93.4423 43.2958 106.086 55.9434 106.086 71.4992C106.154 87.0551 93.4423 99.7027 77.8911 99.7027ZM77.8911 44.6485C63.0837 44.6485 51.0484 56.6873 51.0484 71.4992C51.0484 86.3111 63.0837 98.35 77.8911 98.35C92.6986 98.35 104.734 86.3111 104.734 71.4992C104.801 56.6873 92.6986 44.6485 77.8911 44.6485Z" fill="#2A3547"/>
<path d="M216.297 191.888C207.236 186.004 197.027 179.376 186.208 183.434C180.799 185.463 175.796 186.275 171.266 185.801C170.928 185.734 170.59 185.463 170.657 185.057C170.725 184.719 170.995 184.449 171.401 184.449C175.661 184.855 180.461 184.111 185.735 182.149C197.229 177.821 207.777 184.652 217.04 190.739C224.207 195.405 230.36 199.396 235.228 197.096C240.638 194.526 247.466 169.028 253.89 127.23C253.957 126.892 254.296 126.622 254.634 126.689C254.972 126.757 255.242 127.095 255.174 127.433C250.509 157.801 243.342 194.661 235.769 198.314C229.819 201.154 222.382 195.811 216.297 191.888Z" fill="#2A3547"/>
<path d="M183.369 111.066C186.479 137.511 167.479 149.279 167.479 149.279C172.28 158.883 171.807 178.97 170.86 192.565C170.252 200.546 169.508 206.227 169.508 206.227C160.515 202.439 153.145 203.589 146.992 208.797C139.69 187.627 137.594 168.487 138 154.013C138.27 144.612 139.69 137.24 141.448 132.506C149.697 110.66 169.711 86.1086 205.005 90.0314L183.369 111.066Z" fill="#66D3D8"/>
<path d="M170.86 192.632C170.252 200.613 169.508 206.294 169.508 206.294C160.515 202.507 153.145 203.656 146.992 208.864C139.69 187.695 137.594 168.554 138 154.081C138.473 154.013 138.946 154.013 139.42 154.148C141.651 154.757 142.462 157.327 142.936 159.559C144.761 168.757 145.505 178.091 145.167 187.424C145.099 189.656 144.964 192.023 145.775 194.12C146.587 196.217 148.615 198.043 150.846 197.84C154.43 197.434 155.715 192.7 158.757 190.806C160.853 189.521 163.558 189.724 165.924 190.535C167.615 191.076 169.17 191.888 170.86 192.632Z" fill="#47B6C3"/>
<path d="M146.992 209.541C146.79 209.541 146.587 209.474 146.451 209.271C146.181 209 146.249 208.527 146.519 208.324C152.875 202.913 160.38 201.966 168.967 205.28C169.711 199.193 173.7 163.212 166.871 149.55C166.736 149.212 166.803 148.873 167.141 148.67C167.344 148.535 185.735 136.767 182.692 111.133C182.625 110.795 182.895 110.457 183.301 110.39C183.707 110.322 183.977 110.592 184.045 110.998C186.885 135.076 171.401 147.385 168.358 149.55C175.593 165.173 170.387 204.672 170.184 206.43C170.184 206.633 170.049 206.836 169.846 206.903C169.643 207.039 169.44 207.039 169.237 206.971C160.786 203.387 153.619 204.198 147.398 209.406C147.263 209.474 147.128 209.541 146.992 209.541Z" fill="#2A3547"/>
<path d="M350.578 118.709C353.756 132.371 345.169 143.463 331.511 143.463C323.735 143.463 315.96 139.878 310.145 134.264C315.486 138.255 321.842 140.69 328.265 140.69C341.923 140.69 350.443 129.598 347.332 115.935C345.98 110.051 342.667 104.641 338.272 100.38C344.29 104.911 348.887 111.404 350.578 118.709Z" fill="#E1E5FF"/>
<path d="M331.511 144.139C317.582 144.139 303.654 132.776 300.408 118.844C297.163 104.641 306.088 93.2781 320.152 93.2781C334.08 93.2781 348.076 104.641 351.254 118.573C354.499 132.776 345.574 144.139 331.511 144.139ZM320.152 94.6308C306.967 94.6308 298.718 105.249 301.761 118.573C304.803 131.965 318.191 142.786 331.511 142.786C344.695 142.786 353.012 132.235 349.902 118.844C346.859 105.452 333.472 94.6308 320.152 94.6308Z" fill="#2A3547"/>
<path d="M342.532 118.709C344.628 127.907 338.881 135.414 329.685 135.414C320.49 135.414 311.294 127.975 309.198 118.709C307.102 109.511 312.849 102.003 322.045 102.003C331.24 102.003 340.368 109.443 342.532 118.709Z" fill="#66D3D8"/>
<path d="M342.532 118.708C344.628 127.907 338.881 135.414 329.685 135.414C323.465 135.414 317.244 132.032 313.255 126.96C329.212 142.786 351.051 126.622 336.717 108.496C339.489 111.269 341.653 114.853 342.532 118.708Z" fill="#47B6C3"/>
<path d="M322.315 122.564L318.799 118.303C317.988 117.356 318.056 116.139 318.867 115.598C319.678 115.057 320.963 115.327 321.774 116.274L323.803 118.709L329.077 114.313C329.82 113.704 331.105 113.907 331.916 114.786C332.728 115.665 332.795 116.883 332.052 117.559L325.358 123.24C324.479 123.849 323.059 123.443 322.315 122.564Z" fill="white"/>
<path d="M293.85 43.8369L279.313 25.1698C279.11 24.8993 279.11 24.4259 279.448 24.2229C279.718 24.02 280.192 24.0201 280.394 24.3582L294.931 43.0253C295.134 43.2958 295.134 43.7692 294.796 43.9721C294.526 44.175 294.12 44.1074 293.85 43.8369ZM302.775 55.267L299.191 50.6679C298.988 50.3974 298.988 49.9239 299.326 49.721C299.597 49.5181 300.07 49.5181 300.273 49.8563L303.856 54.4554C304.059 54.726 304.059 55.1994 303.721 55.4023C303.451 55.6052 302.977 55.5376 302.775 55.267ZM268.427 60.813L266.331 60.3396C265.993 60.272 265.722 59.8662 265.79 59.528C265.857 59.1898 266.263 58.9193 266.601 59.0545L268.697 59.528C269.035 59.5956 269.306 60.0014 269.238 60.3396C269.171 60.6778 268.765 60.9483 268.427 60.813ZM295.743 67.1707L274.309 62.1657C273.971 62.0981 273.701 61.6923 273.836 61.3541C273.904 61.0159 274.309 60.7454 274.647 60.8807L296.081 65.818C296.419 65.8856 296.689 66.2914 296.554 66.6296C296.487 67.0354 296.081 67.2383 295.743 67.1707ZM316.906 28.0781C316.568 28.0105 316.297 27.6723 316.297 27.3341L316.703 24.2906C316.771 23.9524 317.109 23.6819 317.447 23.6819C317.785 23.7495 318.055 24.0877 318.055 24.4259L317.65 27.4694C317.65 27.8752 317.312 28.1457 316.906 28.0781ZM313.66 53.3733C313.322 53.3056 313.052 52.9675 313.052 52.6293L315.148 36.2618C315.216 35.9237 315.554 35.6531 315.892 35.6531C316.23 35.7208 316.5 36.0589 316.5 36.3971L314.404 52.7646C314.337 53.1704 313.999 53.4409 313.66 53.3733Z" fill="#CCD2FF"/>
<path d="M67.0055 250.391C67.0055 256.816 70.4538 262.092 69.7101 268.652C69.0339 274.74 64.3686 281.232 58.3509 284.479C50.981 288.402 42.8674 286.846 38.202 282.585C37.9316 282.315 37.5935 282.044 37.323 281.773C48.9526 286.711 63.5572 276.769 66.1941 265.609C67.6816 259.319 64.8419 254.179 65.5856 247.956C66.397 240.855 71.8737 233.347 76.0658 227.734C74.9163 229.628 67.0055 242.546 67.0055 250.391Z" fill="#E1E5FF"/>
<path d="M37.7287 283.058C35.0242 280.556 31.6435 278.324 31.1026 274.131C30.4941 269.87 32.7253 264.797 36.5117 261.416C40.9742 257.56 47.2623 255.937 49.8992 251.203C51.9276 247.618 50.9811 244.236 50.2373 233.55C49.0203 218.603 49.8992 202.709 64.2334 194.525C73.4965 189.25 82.6919 192.361 85.2613 199.666C88.5067 208.796 81.4749 220.159 76.7419 227.801C72.6851 234.362 67.6141 242.546 67.6141 250.256C67.6141 256.546 71.0624 261.889 70.3186 268.585C69.5749 274.875 64.7743 281.638 58.6214 284.885C51.3191 289.01 42.7998 287.658 37.7287 283.058ZM64.9095 195.81C51.1839 203.656 50.3725 218.941 51.5896 233.55C52.4686 244.507 53.2799 248.159 51.1163 251.947C48.2765 257.087 41.718 258.778 37.4583 262.498C34.01 265.474 31.9816 270.208 32.4549 273.996C32.9282 277.58 36.106 279.744 38.6753 282.112C42.7322 285.832 50.5078 287.928 58.0129 283.87C63.8277 280.759 68.2902 274.469 68.9663 268.585C69.7101 262.227 66.2618 256.884 66.2618 250.391C66.2618 242.343 71.4004 234.024 75.5925 227.26C79.9874 220.091 87.0192 208.931 83.9766 200.274C81.4073 192.699 72.347 191.549 64.9095 195.81Z" fill="#CCD2FF"/>
<path d="M42.5293 314.238C42.2589 314.238 42.056 314.103 41.9208 313.9C41.7856 313.697 30.2236 291.986 50.0345 261.957C67.7493 235.174 66.1942 212.651 66.1942 212.448C66.1942 212.043 66.4646 211.772 66.8027 211.704C67.2084 211.704 67.4788 211.975 67.5464 212.313C67.5464 212.516 69.1692 235.512 51.1839 262.701C31.7787 292.054 43.0026 313.02 43.1378 313.223C43.3407 313.697 43.0702 314.238 42.5293 314.238Z" fill="#CCD2FF"/>
<path d="M41.3124 272.981C38.6755 271.763 34.6862 272.846 33.0635 270.275C32.1845 268.787 32.3198 266.556 32.5902 264.391C33.672 254.246 34.551 247.956 33.4692 242.545C29.6152 223.675 6.0856 239.028 14.064 256.14C15.5515 259.319 17.7828 261.889 19.6084 264.797C21.4339 267.705 22.9214 271.155 22.7862 275.213C22.5834 279.879 20.2845 285.02 20.555 289.551C20.8254 293.744 23.5976 296.856 27.2487 297.059C31.7789 297.329 36.9175 293.203 39.9601 288.401C41.6505 285.764 43.8141 282.923 44.2198 279.879C44.6931 276.836 43.5437 273.995 41.3124 272.981Z" fill="#CCD2FF"/>
<path d="M27.2486 297.465C23.3946 297.262 20.5548 294.016 20.2167 289.619C19.9463 285.02 22.2451 279.88 22.448 275.213C22.5832 271.832 21.569 268.585 19.3377 265C17.5122 262.092 15.3485 259.522 13.7934 256.276C12.5088 253.57 11.3593 249.377 12.7116 244.575C16.1599 232.671 30.8321 228.275 33.8071 242.478C34.9566 247.957 34.01 254.247 32.9281 264.392C32.7253 266.15 32.5224 268.585 33.4014 270.005C34.2804 271.493 36.106 271.696 37.9316 271.899C39.1486 272.034 40.3657 272.17 41.4475 272.643C43.814 273.725 45.0986 276.701 44.5577 280.015C44.0844 283.194 41.9208 286.035 40.2304 288.672C37.5259 293.001 32.252 297.735 27.2486 297.465ZM18.4588 237C16.1599 238.961 14.2667 241.87 13.3877 244.778C12.0355 249.377 13.1849 253.435 14.4019 256.005C15.8894 259.184 18.0531 261.754 19.8787 264.662C22.1775 268.382 23.1917 271.764 23.0565 275.281C22.8537 279.88 20.5548 285.223 20.8253 289.619C21.0957 293.677 23.7326 296.653 27.181 296.789C31.8463 297.059 36.9173 292.595 39.6219 288.334C41.3122 285.697 43.4083 282.924 43.8816 279.948C44.2873 276.972 43.2054 274.266 41.1094 273.319C40.1628 272.846 38.9458 272.778 37.7963 272.643C35.8355 272.44 33.8071 272.237 32.7253 270.479C31.7787 268.923 31.9139 266.827 32.1844 264.392C33.1986 254.517 34.2128 248.092 33.0634 242.681C31.373 234.092 24.544 231.86 18.4588 237Z" fill="#CCD2FF"/>
<path d="M38.3373 296.315C38.0668 289.416 36.0384 283.464 32.1844 278.527C21.569 264.932 23.1918 247.415 23.2594 247.28C23.327 246.942 23.6651 246.671 24.0031 246.671C24.3412 246.739 24.6116 247.009 24.6116 247.415C24.6116 247.618 22.9889 264.594 33.2662 277.715C37.2554 282.856 39.4191 289.078 39.6895 296.315C39.6895 296.721 39.4191 296.991 39.0134 296.991C38.6753 296.991 38.3373 296.721 38.3373 296.315ZM51.3191 314.238H35.5651C35.1594 314.238 34.8889 313.967 34.8889 313.561C34.8889 313.156 35.1594 312.885 35.5651 312.885H51.3191C51.7248 312.885 51.9952 313.156 51.9952 313.561C51.9952 313.967 51.6572 314.238 51.3191 314.238Z" fill="#CCD2FF"/>
<path d="M198.717 20.7738H192.97C192.564 20.7738 192.294 20.5033 192.294 20.0975C192.294 19.6917 192.564 19.4211 192.97 19.4211H197.838C195.674 10.2905 199.528 4.94741 207.304 9.14073C206.628 -5.26535 222.72 -1.13966 233.2 11.1021C233.741 8.53202 235.972 8.73493 238.406 9.74944H243.951C244.356 9.74944 244.627 10.02 244.627 10.4258C244.627 10.8316 244.356 11.1021 243.951 11.1021H238.271C237.122 11.1021 234.282 8.59966 234.485 12.8606C234.485 13.537 233.673 13.8075 233.268 13.3341C223.734 1.29517 207.101 -4.79191 208.791 10.3581C208.859 10.8992 208.251 11.305 207.777 11.0345C200.002 6.09719 197.027 11.1698 199.393 20.0298C199.461 20.368 199.123 20.7738 198.717 20.7738Z" fill="#CCD2FF"/>
</svg>
